<?xml version="1.0" encoding="UTF-8"?><svg id="Layer_7" xmlns="http://www.w3.org/2000/svg" viewBox="0 0 581.6 581.6"><defs><style>.cls-1{fill:#fff;}</style></defs><path class="cls-1" d="M445.76,0H135.84C60.82,0,0,60.82,0,135.84V445.76c0,75.02,60.82,135.84,135.84,135.84H445.76c75.02,0,135.84-60.82,135.84-135.84V135.84C581.6,60.82,520.78,0,445.76,0Zm-154.96,480.48c-104.76,0-189.68-84.92-189.68-189.68S186.04,101.12,290.8,101.12s189.68,84.92,189.68,189.68-84.92,189.68-189.68,189.68ZM487.51,152.12c-26.76,0-48.45-21.69-48.45-48.45s21.69-48.45,48.45-48.45,48.45,21.69,48.45,48.45-21.69,48.45-48.45,48.45Z"/><circle class="cls-1" cx="290.8" cy="290.8" r="125.88"/></svg>