<?xml version="1.0" encoding="UTF-8"?><svg id="Layer_8" xmlns="http://www.w3.org/2000/svg" viewBox="0 0 1920 1060"><defs><style>.cls-1{fill:#fff;}</style></defs><g id="J"><g><polygon class="cls-1" points="1650.9 960.62 1509.05 960.62 1339.15 326.56 1481 326.56 1650.9 960.62"/><polygon class="cls-1" points="1545.98 960.62 1687.83 960.62 1857.73 326.56 1715.87 326.56 1545.98 960.62"/><rect class="cls-1" x="1118.31" y="234.59" width="162.43" height="726.04"/><polygon class="cls-1" points="1642.03 248.29 859.24 248.29 900.14 95.64 1682.93 95.64 1642.03 248.29"/><polygon class="cls-1" points="1879.1 248.29 1096.31 248.29 1137.21 95.64 1920 95.64 1879.1 248.29"/><rect class="cls-1" x="619.28" y="330.48" width="133.07" height="630.14"/><polygon class="cls-1" points="948.27 579.01 912.61 712.09 683.65 712.09 719.3 579.01 948.27 579.01"/><polygon class="cls-1" points="1042.2 330.48 1006.55 463.55 714.96 463.55 750.62 330.48 1042.2 330.48"/><polygon class="cls-1" points="991.32 827.55 955.67 960.62 673.86 960.62 709.52 827.55 991.32 827.55"/><path class="cls-1" d="M392.81,123.04h152.8V699.69c0,53.3-10.53,99.61-31.59,138.91-21.06,39.31-50.28,69.6-87.64,90.86-37.37,21.26-80.81,31.9-130.31,31.9-44.03,0-83.96-8.82-119.77-26.45-35.82-17.63-64.2-44.55-85.14-80.76-20.95-36.2-31.3-81.77-31.06-136.69H213.95c.47,21.81,4.46,40.45,11.96,55.93,7.5,15.48,17.85,27.33,31.06,35.53,13.21,8.22,28.85,12.32,46.95,12.32,19.04,0,35.16-4.64,48.37-13.93,13.21-9.29,23.26-22.95,30.17-40.99,6.9-18.03,10.35-40.24,10.35-66.63V123.04Z"/><polygon class="cls-1" points="782.79 248.29 0 248.29 40.9 95.64 823.69 95.64 782.79 248.29"/></g></g></svg>