<?xml version="1.0" encoding="UTF-8"?><svg id="Layer_1" xmlns="http://www.w3.org/2000/svg" viewBox="0 0 1329.13 1080"><defs><style>.cls-1{fill:#fff;}</style></defs><path class="cls-1" d="M1193.05,268.86c.81,11.72,.81,23.43,.81,35.26,0,360.32-274.3,775.88-775.88,775.88v-.22c-148.17,.22-293.26-42.23-417.99-122.25,21.54,2.59,43.2,3.89,64.9,3.94,122.79,.11,242.07-41.09,338.67-116.96-116.69-2.21-219.01-78.3-254.76-189.37,40.88,7.88,82.99,6.26,123.11-4.7-127.22-25.7-218.74-137.48-218.74-267.28v-3.46c37.91,21.11,80.35,32.83,123.76,34.13C57.13,333.77,20.19,174.37,92.55,49.75,231,220.1,435.27,323.67,654.55,334.63c-21.98-94.71,8.05-193.96,78.89-260.53,109.83-103.24,282.56-97.95,385.81,11.83,61.07-12.04,119.6-34.45,173.17-66.2-20.36,63.12-62.96,116.74-119.87,150.81,54.05-6.37,106.86-20.84,156.59-42.93-36.61,54.86-82.72,102.65-136.07,141.26h0Z"/></svg>