<?xml version="1.0" encoding="UTF-8"?><svg id="Layer_2" xmlns="http://www.w3.org/2000/svg" viewBox="0 0 1135.48 800"><defs><style>.cls-1{fill:#fff;}</style></defs><path class="cls-1" d="M1111.75,124.93h0c-13.06-49.18-51.53-87.9-100.39-101.04C922.82,0,567.74,0,567.74,0c0,0-355.07,0-443.62,23.88-48.86,13.14-87.34,51.87-100.39,101.04C0,214.04,0,400,0,400,0,400,0,585.95,23.72,675.08c13.05,49.18,51.53,87.89,100.39,101.05,88.55,23.87,443.62,23.87,443.62,23.87,0,0,355.08,0,443.62-23.87,48.86-13.15,87.33-51.87,100.39-101.04,23.73-89.13,23.73-275.08,23.73-275.08,0,0,0-185.96-23.73-275.08ZM451.61,568.83V231.17l296.77,168.84-296.77,168.82Z"/></svg>